<svg id="Layer_1" data-name="Layer 1" xmlns="http://www.w3.org/2000/svg" viewBox="0 0 99.3 18.9">
  <defs>
    <style>
      .cls-1 {
        fill: #f4bb19;
      }

      .cls-2 {
        fill: #594136;
      }
    </style>
  </defs>
  <title>fin2b-logo</title>
  <g>
    <g>
      <path class="cls-1" d="M3.75,8.45H18a2.7,2.7,0,0,0,0-5.4H3.75a3.14,3.14,0,0,0-3.4,3.1v3.7C.35,10,1.05,8.45,3.75,8.45Z" transform="translate(-0.35 -3.05)"/>
      <path class="cls-2" d="M17.85,16.25H7.35V22h10.5a2.8,2.8,0,0,0,2.8-2.8A2.88,2.88,0,0,0,17.85,16.25Z" transform="translate(-0.35 -3.05)"/>
      <path class="cls-1" d="M6.35,16.25H3.15a2.8,2.8,0,0,0,0,5.6h3.2v-5.6h-.3" transform="translate(-0.35 -3.05)"/>
      <path class="cls-2" d="M7.35,15.25h10.5a3,3,0,0,0,2.9-2.8h0a2.66,2.66,0,0,0-1-2.1,4.26,4.26,0,0,0-2.6-.7h-3.6a2.14,2.14,0,0,1,.4,1.2,2.11,2.11,0,0,1-2.1,2.1H8.45a1,1,0,0,0-1.1,1.1Z" transform="translate(-0.35 -3.05)"/>
      <path class="cls-1" d="M6.35,14.05A2.11,2.11,0,0,1,8.45,12h3.2a1.16,1.16,0,0,0,1.2-1.2,1.22,1.22,0,0,0-1.2-1.2H4c-3.1,0-3.5,2-3.6,2.2v5.1a1.7,1.7,0,0,1,.6-.6,4.75,4.75,0,0,1,3-1h2.4Z" transform="translate(-0.35 -3.05)"/>
    </g>
    <path class="cls-2" d="M28.45,6h7.7v2.5h-4.9v2.4h4.9v2.5h-4.9v5.9h-2.8Z" transform="translate(-0.35 -3.05)"/>
    <path class="cls-2" d="M44.05,6h2.8v13.2h-2.8Z" transform="translate(-0.35 -3.05)"/>
    <path class="cls-1" d="M83,19.15h-9.5l.5-.6,4.7-5.6a4.62,4.62,0,0,0,.7-1,9.22,9.22,0,0,0,.5-.8,4.88,4.88,0,0,0,.3-.7,1.27,1.27,0,0,0,.1-.6,1.59,1.59,0,0,0-.4-1.2c-.2-.1-.3-.2-.5-.3a1.48,1.48,0,0,0-.7-.1c-.3,0-.5,0-.6.1a2.19,2.19,0,0,0-.5.3,1,1,0,0,0-.4.5,6.37,6.37,0,0,0-.2.7v.3h-2.6v-.3a4.67,4.67,0,0,1,.3-1.7,3.81,3.81,0,0,1,.9-1.3,4.11,4.11,0,0,1,1.3-.8,5.23,5.23,0,0,1,1.8-.3,8.81,8.81,0,0,1,1.7.2,3.92,3.92,0,0,1,1.4.8,4.7,4.7,0,0,1,.9,1.2,4.15,4.15,0,0,1,.3,1.6,5,5,0,0,1-.2,1.2,6.12,6.12,0,0,1-.5,1.2,7.69,7.69,0,0,1-1,1.5c-.5.6-1,1.3-1.6,2l-1.1,1.2h4.3l.1,2.5Z" transform="translate(-0.35 -3.05)"/>
    <path class="cls-2" d="M90.75,6h4.6c.4,0,.7.1,1,.1a2.73,2.73,0,0,1,2.2,1.8,4.71,4.71,0,0,1,.4,1.6,4.48,4.48,0,0,1-.1,1.1,2.68,2.68,0,0,1-1,1.5.31.31,0,0,1,.2.1,6.47,6.47,0,0,1,.9.8,4.67,4.67,0,0,1,.5,1,5,5,0,0,1,.2,1.2,4.53,4.53,0,0,1-.3,1.6,3.24,3.24,0,0,1-2.3,2.1,4.44,4.44,0,0,1-1.3.2h-4.9L90.75,6Zm2.7,5.2a12.13,12.13,0,0,0,1.8-.1c.6,0,.9-.5.9-1.3h0c0-.8-.3-1.3-.9-1.4a10.87,10.87,0,0,0-1.8-.1v2.9Zm0,5.5h1a2.77,2.77,0,0,0,.9-.1c.2,0,.3-.1.4-.1h0a1,1,0,0,0,.5-.4c.1-.1.1-.2.2-.3a2.35,2.35,0,0,0,.2-.8,1.88,1.88,0,0,0-.2-.8,1,1,0,0,0-.6-.5c-.2-.1-.4-.1-.6-.2s-.6-.1-.9-.1h-.9v3.3Z" transform="translate(-0.35 -3.05)"/>
    <path class="cls-2" d="M54.65,6l8.5,7.5V6h2.6v13.2l-8.5-7.9v7.9h-2.5V6Z" transform="translate(-0.35 -3.05)"/>
  </g>
</svg>
